<svg xmlns="http://www.w3.org/2000/svg" xmlns:xlink="http://www.w3.org/1999/xlink" preserveAspectRatio="xMidYMid" width="34.063" height="39.938" viewBox="0 0 34.063 39.938">
  <defs>
    <style>
      .cls-1 {
        fill: #fff;
        fill-rule: evenodd;
      }
    </style>
  </defs>
  <path d="M29.411,24.567 C26.635,26.766 22.705,27.735 18.568,27.735 C17.356,27.735 16.347,27.633 15.590,27.530 L13.270,39.949 L6.159,39.949 L6.710,36.991 L8.965,36.991 L11.285,24.573 C12.040,24.674 13.047,24.776 14.260,24.776 C18.397,24.776 22.327,23.803 25.103,21.608 C27.776,19.512 29.741,16.239 29.741,11.895 C29.741,9.577 29.043,7.713 27.853,6.257 C28.755,6.587 29.611,7.001 30.364,7.546 C32.634,9.128 34.049,11.532 34.049,14.853 C34.049,19.198 32.084,22.469 29.411,24.567 ZM23.261,19.309 C20.488,21.511 16.554,22.480 12.419,22.480 C11.208,22.480 10.201,22.378 9.443,22.277 L7.125,34.699 L0.013,34.699 L6.316,0.909 C8.486,0.346 11.915,-0.013 15.193,-0.013 C18.218,-0.013 21.747,0.499 24.217,2.288 C26.492,3.874 27.902,6.276 27.902,9.598 C27.902,13.943 25.937,17.214 23.261,19.309 ZM15.394,5.866 C14.033,5.866 13.076,5.970 12.471,6.124 L10.553,16.297 C11.308,16.450 12.117,16.552 13.328,16.552 C17.714,16.552 20.586,13.689 20.586,10.265 C20.586,6.941 18.218,5.866 15.394,5.866 Z" class="cls-1"/>
</svg>
